<svg width="40" height="42" viewBox="0 0 40 42" fill="none" xmlns="http://www.w3.org/2000/svg">
<g clip-path="url(#clip0_4228_77)">
<mask id="mask0_4228_77" style="mask-type:luminance" maskUnits="userSpaceOnUse" x="0" y="0" width="40" height="42">
<path d="M40 0.5H0V41.5H40V0.5Z" fill="white"/>
</mask>
<g mask="url(#mask0_4228_77)">
<path d="M33.5306 24.2016C33.5306 27.0755 32.3876 29.8317 30.3532 31.8639C28.3188 33.8961 25.5595 35.0377 22.6824 35.0377C20.2761 35.0377 18.0473 34.2496 16.2525 32.9296L31.4201 17.7787C32.7416 19.5716 33.5306 21.7979 33.5306 24.2016Z" fill="#353535"/>
<path d="M33.3925 31.846L35.6607 26.3885L40 31.3928L33.3925 31.846Z" fill="#353535"/>
<path d="M35.6607 22.0738L33.4122 16.5966L40 17.0694L35.6607 22.0738Z" fill="#353535"/>
<path d="M24.8521 37.1655L30.3156 34.8998L29.8422 41.5L24.8521 37.1655Z" fill="#353535"/>
<path d="M15.0493 34.8998L20.5128 37.1655L15.5227 41.4803L15.0493 34.8998Z" fill="#353535"/>
<path d="M33.6686 4.49951L36.4891 7.3169L5.7791 37.993L2.95859 35.1756L33.6686 4.49951Z" fill="#353535"/>
<path fill-rule="evenodd" clip-rule="evenodd" d="M18.5602 7.45483L21.4793 9.28712L20.4734 5.99688L23.1361 3.77054L19.7239 3.71144L18.4024 0.5L17.2584 3.75084L13.8067 3.98727L16.5483 6.07568L15.7199 9.42503L18.5602 7.45483ZM12.6824 14.9613L14.9704 16.3996L14.1815 13.8186L16.2525 12.1045L13.57 12.0454L12.5641 9.54325L11.6765 12.0848L8.99408 12.2621L11.144 13.8974L10.4734 16.4981L12.6824 14.9613Z" fill="#353535"/>
<path d="M10.8481 1.54422C7.31755 3.80996 4.93097 7.80948 4.93097 12.3803C4.93097 16.9512 7.31755 20.9507 10.9073 23.2165C4.85207 23.2165 0 18.3698 0 12.3803C0 9.50643 1.14292 6.75022 3.17734 4.71805C5.21176 2.68588 7.97102 1.54422 10.8481 1.54422Z" fill="#353535"/>
</g>
</g>
<defs>
<clipPath id="clip0_4228_77">
<rect width="40" height="41" fill="white" transform="translate(0 0.5)"/>
</clipPath>
</defs>
</svg>
