<svg xmlns="http://www.w3.org/2000/svg" width="20" height="20" viewBox="0 0 20 20">
  <g clip-path="url(#clip0_4539_600)">
    <path d="M8.33331 6.66667H13.3333V7.77778H8.33331V6.66667Z"/>
    <path d="M8.33331 8.88889H13.3333V10H8.33331V8.88889Z"/>
    <path d="M8.33331 11.1111H13.3333V12.2222H8.33331V11.1111Z"/>
    <path d="M8.33331 13.3333H13.3333V14.4444H8.33331V13.3333Z"/>
    <path d="M6.11108 4.44444H7.22219V5.55556H6.11108V4.44444Z"/>
    <path d="M6.11108 6.66667H7.22219V7.77778H6.11108V6.66667Z"/>
    <path d="M6.11108 8.88889H7.22219V10H6.11108V8.88889Z"/>
    <path d="M6.11108 11.1111H7.22219V12.2222H6.11108V11.1111Z"/>
    <path d="M6.11108 13.3333H7.22219V14.4444H6.11108V13.3333Z"/>
    <path d="M8.33331 4.44444V5.55556H13.1444C12.9258 5.21155 12.7592 4.83714 12.65 4.44444H8.33331Z"/>
    <path d="M15.5555 7.34444V17.7778H4.44442V2.22222H12.6555C12.763 1.82984 12.9277 1.45544 13.1444 1.11111H4.44442C4.14974 1.11111 3.86712 1.22817 3.65875 1.43655C3.45038 1.64492 3.33331 1.92754 3.33331 2.22222V17.7778C3.33331 18.0725 3.45038 18.3551 3.65875 18.5635C3.86712 18.7718 4.14974 18.8889 4.44442 18.8889H15.5555C15.8502 18.8889 16.1328 18.7718 16.3412 18.5635C16.5496 18.3551 16.6666 18.0725 16.6666 17.7778V7.5C16.291 7.49855 15.9172 7.44622 15.5555 7.34444V7.34444Z"/>
    <path d="M16.6667 6.11111C18.2008 6.11111 19.4445 4.86746 19.4445 3.33333C19.4445 1.79921 18.2008 0.555555 16.6667 0.555555C15.1326 0.555555 13.8889 1.79921 13.8889 3.33333C13.8889 4.86746 15.1326 6.11111 16.6667 6.11111Z"/>
  </g>
  <defs>
    <clipPath id="clip0_4539_600">
      <rect width="20" height="20" fill="white"/>
    </clipPath>
  </defs>
</svg>